<svg width="1351" height="240" viewBox="0 0 1351 240" fill="none" xmlns="http://www.w3.org/2000/svg">
<path d="M32.2665 127.693C24.0135 120.398 12.477 120.895 5.20012 129.166C-2.07675 137.454 -1.11833 148.991 7.15245 156.285C15.654 163.811 27.2082 163.314 34.4673 155.025C41.7442 146.737 40.7858 135.2 32.2665 127.675V127.693Z" fill="#162338"/>
<path d="M311.182 38.1827C302.68 30.6573 291.126 31.1543 283.867 39.4428C276.59 47.7314 277.548 59.2679 286.067 66.7932C294.321 74.0879 305.857 73.5909 313.134 65.3201C320.411 57.0316 319.452 45.4951 311.182 38.2004V38.1827Z" fill="#162338"/>
<path d="M233.518 94.805L175.108 153.215V9.45261C162.63 -3.02457 142.397 -3.02457 129.938 9.45261L39.5625 99.8101C52.0397 112.287 72.2729 112.287 84.7501 99.8101L143.16 41.3999V185.162C155.637 197.64 175.871 197.64 188.33 185.162L278.688 94.805C266.21 82.3278 245.977 82.3278 233.5 94.805H233.518Z" fill="#162338"/>
<g clip-path="url(#clip0_147_20627)">
<path d="M458.977 52.9166H468.107C479.23 52.9166 488.246 61.9335 488.246 73.0564V73.0564C496.034 61.241 512.414 50.7683 533.897 50.7683C562.898 50.7683 584.381 69.297 584.381 100.447V188.256H554.842V106.891C554.842 87.5571 543.564 76.5473 526.378 76.5473C502.747 76.5473 488.246 96.6872 488.246 129.717V188.256H458.977V52.9166Z" fill="#162338"/>
<path d="M609.939 195.767H639.477C642.7 208.12 654.784 215.639 671.164 215.639C692.915 215.639 709.296 204.36 709.296 182.341V163.007C701.24 174.822 685.128 182.072 667.673 182.072C629.542 182.072 604.031 156.025 604.031 116.551C604.031 77.0766 629.273 50.7605 667.673 50.7605C684.859 50.7605 701.24 57.4738 709.296 69.2892V69.2892C709.296 60.2425 716.629 52.9088 725.676 52.9088H738.834V179.656C738.834 217.519 709.833 239.27 670.359 239.27C638.135 239.27 613.967 221.278 609.939 195.767ZM671.164 158.173C693.452 158.173 709.296 140.987 709.296 116.282C709.296 91.5773 693.452 74.6598 671.164 74.6598C648.876 74.6598 632.764 91.3087 632.764 116.551C632.764 141.793 648.607 158.173 671.164 158.173Z" fill="#162338"/>
<path d="M759.342 120.586C759.342 79.7697 787.806 50.7683 826.743 50.7683C869.708 50.7683 896.024 84.0662 890.654 125.957H788.88C790.76 151.199 806.066 165.7 827.817 165.7C845.003 165.7 856.282 157.375 859.773 144.486H889.311C884.477 171.607 861.384 190.405 828.354 190.405C787.001 190.405 759.342 161.403 759.342 120.586ZM860.31 103.669C860.041 85.6774 846.346 74.3991 826.743 74.3991C807.14 74.3991 794.788 84.3347 790.491 103.669H860.31Z" fill="#162338"/>
<path d="M903.412 143.404H931.339C932.951 158.173 942.618 166.766 958.461 166.766C972.693 166.766 981.555 160.321 981.555 149.043C981.555 119.773 906.635 138.839 906.635 88.6234C906.635 67.4094 925.432 50.7605 953.896 50.7605C984.777 50.7605 1004.11 66.0668 1007.87 92.6514H979.944C978.064 80.5675 967.591 73.5857 953.896 73.5857C942.618 73.5857 934.025 78.4192 934.025 87.2808C934.025 114.402 1009.75 93.7255 1009.75 148.237C1009.75 172.942 988.268 190.397 958.461 190.397C923.552 190.397 904.755 168.377 903.412 143.404Z" fill="#162338"/>
<path d="M1119.53 52.9166H1148.8V73.5935C1156.59 59.8984 1172.7 50.7683 1189.62 50.7683C1195.26 50.7683 1200.63 51.5739 1204.92 53.4536V81.6494C1198.75 78.9641 1192.3 78.1585 1186.93 78.1585C1165.99 78.1585 1148.8 96.9557 1148.8 135.893V188.256H1119.53V52.9166Z" fill="#162338"/>
<path d="M1210.5 120.318C1210.5 79.5012 1239.77 50.7683 1280.31 50.7683C1320.86 50.7683 1350.13 79.5012 1350.13 120.318C1350.13 161.135 1320.86 190.405 1280.31 190.405C1239.77 190.405 1210.5 161.135 1210.5 120.318ZM1280.33 165.163C1303.96 165.163 1320.34 146.903 1320.34 120.318C1320.34 93.7333 1303.96 76.0103 1280.33 76.0103C1256.7 76.0103 1240.32 94.0019 1240.32 120.318C1240.32 146.634 1256.97 165.163 1280.33 165.163Z" fill="#162338"/>
<path d="M395.456 0H427.344V187.972H395.456L395.456 0Z" fill="#162338"/>
<path d="M1039.33 77.1355C1047.28 77.6649 1054.43 81.1102 1059.74 86.4021C1064.71 91.3764 1068.05 97.9825 1068.87 105.355V142.871C1068.87 157.372 1076.39 164.622 1087.94 164.622C1092.77 164.622 1098.41 163.548 1102.98 161.937V186.91C1097.34 189.327 1090.62 190.401 1084.18 190.401C1058.4 190.401 1039.33 174.558 1039.33 145.288V77.1355ZM1068.87 52.9128H1101.9V77.0808H1069.08V77.0632C1069.15 77.0632 1092.91 77.0632 1037.19 77.0632C1037.53 77.0632 1037.87 77.07 1038.22 77.0808H1017.32V52.9128H1039.33V19.3464H1068.87V52.9128Z" fill="#162338"/>
</g>
<defs>
<clipPath id="clip0_147_20627">
<rect width="954.965" height="240" fill="white" transform="translate(395.456)"/>
</clipPath>
</defs>
</svg>
